<?xml version="1.0" encoding="UTF-8" standalone="no"?>
<!DOCTYPE svg PUBLIC "-//W3C//DTD SVG 1.1//EN"
 "http://www.w3.org/Graphics/SVG/1.1/DTD/svg11.dtd">
<!-- Generated by graphviz version 2.42.4 (0)
 -->
<!-- Title: G Pages: 1 -->
<svg width="334pt" height="1314pt"
 viewBox="0.00 0.00 333.90 1314.40" xmlns="http://www.w3.org/2000/svg" xmlns:xlink="http://www.w3.org/1999/xlink">
<g id="graph0" class="graph" transform="scale(1 1) rotate(0) translate(25.2 1289.2)">
<title>G</title>
<polygon fill="white" stroke="transparent" points="-25.2,25.2 -25.2,-1289.2 308.7,-1289.2 308.7,25.2 -25.2,25.2"/>
<g id="clust1" class="cluster">
<title>cluster_req</title>
<path fill="#f7fbff" stroke="#dcebff" stroke-width="1.2" d="M28,-872C28,-872 206,-872 206,-872 212,-872 218,-878 218,-884 218,-884 218,-1180 218,-1180 218,-1186 212,-1192 206,-1192 206,-1192 28,-1192 28,-1192 22,-1192 16,-1186 16,-1180 16,-1180 16,-884 16,-884 16,-878 22,-872 28,-872"/>
<text text-anchor="start" x="33" y="-1177.8" font-family="Times,serif" font-weight="bold" font-size="14.00">1. Request &amp; Context</text>
<text text-anchor="start" x="55.5" y="-1167" font-family="Times,serif" font-size="10.00">요청 접수 및 이전 맥락 확인</text>
</g>
<g id="clust2" class="cluster">
<title>cluster_plan</title>
<path fill="#f7fcf8" stroke="#d7f1e0" stroke-width="1.2" d="M20,-648C20,-648 214,-648 214,-648 220,-648 226,-654 226,-660 226,-660 226,-852 226,-852 226,-858 220,-864 214,-864 214,-864 20,-864 20,-864 14,-864 8,-858 8,-852 8,-852 8,-660 8,-660 8,-654 14,-648 20,-648"/>
<text text-anchor="start" x="36" y="-849.8" font-family="Times,serif" font-weight="bold" font-size="14.00">2. Strategy Planning</text>
<text text-anchor="start" x="67" y="-839" font-family="Times,serif" font-size="10.00">검색 전략 결정 및 검증</text>
</g>
<g id="clust3" class="cluster">
<title>cluster_ret</title>
<path fill="#fffdf8" stroke="#f8e6c0" stroke-width="1.2" d="M34,-320C34,-320 200,-320 200,-320 206,-320 212,-326 212,-332 212,-332 212,-628 212,-628 212,-634 206,-640 200,-640 200,-640 34,-640 34,-640 28,-640 22,-634 22,-628 22,-628 22,-332 22,-332 22,-326 28,-320 34,-320"/>
<text text-anchor="start" x="30" y="-625.8" font-family="Times,serif" font-weight="bold" font-size="14.00">3. Retrieval Execution</text>
<text text-anchor="start" x="84.5" y="-615" font-family="Times,serif" font-size="10.00">실제 검색 수행</text>
</g>
<g id="clust4" class="cluster">
<title>cluster_srv</title>
<path fill="#fcf9ff" stroke="#e9d7f8" stroke-width="1.2" d="M22,-96C22,-96 173,-96 173,-96 179,-96 185,-102 185,-108 185,-108 185,-300 185,-300 185,-306 179,-312 173,-312 173,-312 22,-312 22,-312 16,-312 10,-306 10,-300 10,-300 10,-108 10,-108 10,-102 16,-96 22,-96"/>
<text text-anchor="start" x="18" y="-297.8" font-family="Times,serif" font-weight="bold" font-size="14.00">4. Answer &amp; Serving</text>
<text text-anchor="start" x="42.5" y="-287" font-family="Times,serif" font-size="10.00">응답 생성 및 서비스 제공</text>
</g>
<!-- U -->
<g id="node1" class="node">
<title>U</title>
<path fill="#eaf2ff" stroke="#d0d7de" stroke-width="1.1" d="M161,-1264C161,-1264 73,-1264 73,-1264 67,-1264 61,-1258 61,-1252 61,-1252 61,-1212 61,-1212 61,-1206 67,-1200 73,-1200 73,-1200 161,-1200 161,-1200 167,-1200 173,-1206 173,-1212 173,-1212 173,-1252 173,-1252 173,-1258 167,-1264 161,-1264"/>
<text text-anchor="start" x="76" y="-1242.4" font-family="Arial" font-weight="bold" font-size="12.00">User Question</text>
<text text-anchor="start" x="91" y="-1216" font-family="Arial" font-size="10.00">사용자 질문</text>
</g>
<!-- API -->
<g id="node2" class="node">
<title>API</title>
<path fill="#ffffff" stroke="#d0d7de" stroke-width="1.1" d="M167,-1152C167,-1152 67,-1152 67,-1152 61,-1152 55,-1146 55,-1140 55,-1140 55,-1100 55,-1100 55,-1094 61,-1088 67,-1088 67,-1088 167,-1088 167,-1088 173,-1088 179,-1094 179,-1100 179,-1100 179,-1140 179,-1140 179,-1146 173,-1152 167,-1152"/>
<text text-anchor="start" x="89.5" y="-1130.4" font-family="Arial" font-weight="bold" font-size="12.00">API Entry</text>
<text text-anchor="start" x="70" y="-1104" font-family="Arial" font-size="10.00">질문 접수 / 세션 진입</text>
</g>
<!-- U&#45;&gt;API -->
<g id="edge1" class="edge">
<title>U&#45;&gt;API</title>
<path fill="none" stroke="#7a7a7a" stroke-width="1.1" d="M117,-1199.91C117,-1199.91 117,-1159.1 117,-1159.1"/>
<polygon fill="#7a7a7a" stroke="#7a7a7a" stroke-width="1.1" points="119.45,-1159.1 117,-1152.1 114.55,-1159.1 119.45,-1159.1"/>
</g>
<!-- MEM -->
<g id="node3" class="node">
<title>MEM</title>
<path fill="#ffffff" stroke="#d0d7de" stroke-width="1.1" d="M181,-1048C181,-1048 53,-1048 53,-1048 47,-1048 41,-1042 41,-1036 41,-1036 41,-996 41,-996 41,-990 47,-984 53,-984 53,-984 181,-984 181,-984 187,-984 193,-990 193,-996 193,-996 193,-1036 193,-1036 193,-1042 187,-1048 181,-1048"/>
<text text-anchor="start" x="62" y="-1026.4" font-family="Arial" font-weight="bold" font-size="12.00">Conversation State</text>
<text text-anchor="start" x="56" y="-1000" font-family="Arial" font-size="10.00">이전 대화 · 근거 · 화면 상태</text>
</g>
<!-- API&#45;&gt;MEM -->
<g id="edge2" class="edge">
<title>API&#45;&gt;MEM</title>
<path fill="none" stroke="#7a7a7a" stroke-width="1.1" d="M117,-1087.95C117,-1087.95 117,-1055.13 117,-1055.13"/>
<polygon fill="#7a7a7a" stroke="#7a7a7a" stroke-width="1.1" points="119.45,-1055.13 117,-1048.13 114.55,-1055.13 119.45,-1055.13"/>
</g>
<!-- INT -->
<g id="node4" class="node">
<title>INT</title>
<path fill="#ffffff" stroke="#d0d7de" stroke-width="1.1" d="M198.5,-944C198.5,-944 35.5,-944 35.5,-944 29.5,-944 23.5,-938 23.5,-932 23.5,-932 23.5,-892 23.5,-892 23.5,-886 29.5,-880 35.5,-880 35.5,-880 198.5,-880 198.5,-880 204.5,-880 210.5,-886 210.5,-892 210.5,-892 210.5,-932 210.5,-932 210.5,-938 204.5,-944 198.5,-944"/>
<text text-anchor="start" x="52" y="-922.4" font-family="Arial" font-weight="bold" font-size="12.00">Intent / Scope Analysis</text>
<text text-anchor="start" x="39" y="-896" font-family="Arial" font-size="10.00">질문 의도 · 새 질문 / 후속 질문 판별</text>
</g>
<!-- MEM&#45;&gt;INT -->
<g id="edge3" class="edge">
<title>MEM&#45;&gt;INT</title>
<path fill="none" stroke="#7a7a7a" stroke-width="1.1" d="M117,-983.95C117,-983.95 117,-951.13 117,-951.13"/>
<polygon fill="#7a7a7a" stroke="#7a7a7a" stroke-width="1.1" points="119.45,-951.13 117,-944.13 114.55,-951.13 119.45,-951.13"/>
</g>
<!-- PLAN -->
<g id="node5" class="node">
<title>PLAN</title>
<path fill="#ffffff" stroke="#d0d7de" stroke-width="1.1" d="M205.5,-824C205.5,-824 28.5,-824 28.5,-824 22.5,-824 16.5,-818 16.5,-812 16.5,-812 16.5,-772 16.5,-772 16.5,-766 22.5,-760 28.5,-760 28.5,-760 205.5,-760 205.5,-760 211.5,-760 217.5,-766 217.5,-772 217.5,-772 217.5,-812 217.5,-812 217.5,-818 211.5,-824 205.5,-824"/>
<text text-anchor="start" x="95" y="-802.4" font-family="Arial" font-weight="bold" font-size="12.00">Planner</text>
<text text-anchor="start" x="32" y="-776" font-family="Arial" font-size="10.00">SEARCH / LOOKUP / JOIN 전략 생성</text>
</g>
<!-- INT&#45;&gt;PLAN -->
<g id="edge4" class="edge">
<title>INT&#45;&gt;PLAN</title>
<path fill="none" stroke="#7a7a7a" stroke-width="1.1" d="M117,-879.84C117,-879.84 117,-831.25 117,-831.25"/>
<polygon fill="#7a7a7a" stroke="#7a7a7a" stroke-width="1.1" points="119.45,-831.25 117,-824.25 114.55,-831.25 119.45,-831.25"/>
</g>
<!-- VALID -->
<g id="node6" class="node">
<title>VALID</title>
<path fill="#ffffff" stroke="#d0d7de" stroke-width="1.1" d="M188,-720C188,-720 46,-720 46,-720 40,-720 34,-714 34,-708 34,-708 34,-668 34,-668 34,-662 40,-656 46,-656 46,-656 188,-656 188,-656 194,-656 200,-662 200,-668 200,-668 200,-708 200,-708 200,-714 194,-720 188,-720"/>
<text text-anchor="start" x="62.5" y="-698.4" font-family="Arial" font-weight="bold" font-size="12.00">Contract Validation</text>
<text text-anchor="start" x="49" y="-672" font-family="Arial" font-size="10.00">전략 정합성 · 위험한 경로 차단</text>
</g>
<!-- PLAN&#45;&gt;VALID -->
<g id="edge5" class="edge">
<title>PLAN&#45;&gt;VALID</title>
<path fill="none" stroke="#7a7a7a" stroke-width="1.1" d="M117,-759.95C117,-759.95 117,-727.13 117,-727.13"/>
<polygon fill="#7a7a7a" stroke="#7a7a7a" stroke-width="1.1" points="119.45,-727.13 117,-720.13 114.55,-727.13 119.45,-727.13"/>
</g>
<!-- MODE -->
<g id="node7" class="node">
<title>MODE</title>
<path fill="#ffffff" stroke="#d0d7de" stroke-width="1.1" d="M191,-600C191,-600 43,-600 43,-600 37,-600 31,-594 31,-588 31,-588 31,-548 31,-548 31,-542 37,-536 43,-536 43,-536 191,-536 191,-536 197,-536 203,-542 203,-548 203,-548 203,-588 203,-588 203,-594 197,-600 191,-600"/>
<text text-anchor="start" x="80" y="-578.4" font-family="Arial" font-weight="bold" font-size="12.00">Mode Router</text>
<text text-anchor="start" x="46" y="-552" font-family="Arial" font-size="10.00">질문 유형에 맞는 검색 방식 선택</text>
</g>
<!-- VALID&#45;&gt;MODE -->
<g id="edge6" class="edge">
<title>VALID&#45;&gt;MODE</title>
<path fill="none" stroke="#7a7a7a" stroke-width="1.1" d="M117,-655.84C117,-655.84 117,-607.25 117,-607.25"/>
<polygon fill="#7a7a7a" stroke="#7a7a7a" stroke-width="1.1" points="119.45,-607.25 117,-600.25 114.55,-607.25 119.45,-607.25"/>
</g>
<!-- HYB -->
<g id="node8" class="node">
<title>HYB</title>
<path fill="#ffffff" stroke="#d0d7de" stroke-width="1.1" d="M190,-496C190,-496 44,-496 44,-496 38,-496 32,-490 32,-484 32,-484 32,-444 32,-444 32,-438 38,-432 44,-432 44,-432 190,-432 190,-432 196,-432 202,-438 202,-444 202,-444 202,-484 202,-484 202,-490 196,-496 190,-496"/>
<text text-anchor="start" x="71" y="-474.4" font-family="Arial" font-weight="bold" font-size="12.00">Hybrid Retrieval</text>
<text text-anchor="start" x="47" y="-448" font-family="Arial" font-size="10.00">Dense · Sparse · Filter · Rerank</text>
</g>
<!-- MODE&#45;&gt;HYB -->
<g id="edge7" class="edge">
<title>MODE&#45;&gt;HYB</title>
<path fill="none" stroke="#7a7a7a" stroke-width="1.1" d="M117,-535.95C117,-535.95 117,-503.13 117,-503.13"/>
<polygon fill="#7a7a7a" stroke="#7a7a7a" stroke-width="1.1" points="119.45,-503.13 117,-496.13 114.55,-503.13 119.45,-503.13"/>
</g>
<!-- EVID -->
<g id="node9" class="node">
<title>EVID</title>
<path fill="#ffffff" stroke="#d0d7de" stroke-width="1.1" d="M186,-392C186,-392 44,-392 44,-392 38,-392 32,-386 32,-380 32,-380 32,-340 32,-340 32,-334 38,-328 44,-328 44,-328 186,-328 186,-328 192,-328 198,-334 198,-340 198,-340 198,-380 198,-380 198,-386 192,-392 186,-392"/>
<text text-anchor="start" x="66" y="-370.4" font-family="Arial" font-weight="bold" font-size="12.00">Evidence Builder</text>
<text text-anchor="start" x="47" y="-344" font-family="Arial" font-size="10.00">근거 정리 · 컨텍스트 예산 관리</text>
</g>
<!-- HYB&#45;&gt;EVID -->
<g id="edge8" class="edge">
<title>HYB&#45;&gt;EVID</title>
<path fill="none" stroke="#7a7a7a" stroke-width="1.1" d="M115,-431.95C115,-431.95 115,-399.13 115,-399.13"/>
<polygon fill="#7a7a7a" stroke="#7a7a7a" stroke-width="1.1" points="117.45,-399.13 115,-392.13 112.55,-399.13 117.45,-399.13"/>
</g>
<!-- OBS -->
<g id="node12" class="node">
<title>OBS</title>
<path fill="#f3f4f6" stroke="#d0d7de" stroke-width="1.1" d="M271.5,-64C271.5,-64 156.5,-64 156.5,-64 150.5,-64 144.5,-58 144.5,-52 144.5,-52 144.5,-12 144.5,-12 144.5,-6 150.5,0 156.5,0 156.5,0 271.5,0 271.5,0 277.5,0 283.5,-6 283.5,-12 283.5,-12 283.5,-52 283.5,-52 283.5,-58 277.5,-64 271.5,-64"/>
<text text-anchor="start" x="176.5" y="-42.4" font-family="Arial" font-weight="bold" font-size="12.00">Observability</text>
<text text-anchor="start" x="160" y="-16" font-family="Arial" font-size="10.00">로그 · 메트릭 · 상태 저장</text>
</g>
<!-- HYB&#45;&gt;OBS -->
<g id="edge11" class="edge">
<title>HYB&#45;&gt;OBS</title>
<path fill="none" stroke="#7a7a7a" stroke-width="1.1" stroke-dasharray="5,2" d="M202.3,-464C207.24,-464 210.25,-464 210.25,-464 210.25,-464 210.25,-71.12 210.25,-71.12"/>
<polygon fill="#7a7a7a" stroke="#7a7a7a" stroke-width="1.1" points="212.7,-71.12 210.25,-64.12 207.8,-71.12 212.7,-71.12"/>
</g>
<!-- LLM -->
<g id="node10" class="node">
<title>LLM</title>
<path fill="#ffffff" stroke="#d0d7de" stroke-width="1.1" d="M165,-272C165,-272 33,-272 33,-272 27,-272 21,-266 21,-260 21,-260 21,-220 21,-220 21,-214 27,-208 33,-208 33,-208 165,-208 165,-208 171,-208 177,-214 177,-220 177,-220 177,-260 177,-260 177,-266 171,-272 165,-272"/>
<text text-anchor="start" x="62.5" y="-250.4" font-family="Arial" font-weight="bold" font-size="12.00">LLM Serving</text>
<text text-anchor="start" x="36" y="-224" font-family="Arial" font-size="10.00">Triton / vLLM 기반 추론 계층</text>
</g>
<!-- EVID&#45;&gt;LLM -->
<g id="edge9" class="edge">
<title>EVID&#45;&gt;LLM</title>
<path fill="none" stroke="#7a7a7a" stroke-width="1.1" d="M104.5,-327.84C104.5,-327.84 104.5,-279.25 104.5,-279.25"/>
<polygon fill="#7a7a7a" stroke="#7a7a7a" stroke-width="1.1" points="106.95,-279.25 104.5,-272.25 102.05,-279.25 106.95,-279.25"/>
</g>
<!-- RESP -->
<g id="node11" class="node">
<title>RESP</title>
<path fill="#ffffff" stroke="#d0d7de" stroke-width="1.1" d="M157.5,-168C157.5,-168 30.5,-168 30.5,-168 24.5,-168 18.5,-162 18.5,-156 18.5,-156 18.5,-116 18.5,-116 18.5,-110 24.5,-104 30.5,-104 30.5,-104 157.5,-104 157.5,-104 163.5,-104 169.5,-110 169.5,-116 169.5,-116 169.5,-156 169.5,-156 169.5,-162 163.5,-168 157.5,-168"/>
<text text-anchor="start" x="34" y="-146.4" font-family="Arial" font-weight="bold" font-size="12.00">Streaming Response</text>
<text text-anchor="start" x="36" y="-120" font-family="Arial" font-size="10.00">SSE 응답 · 최종 답변 반환</text>
</g>
<!-- LLM&#45;&gt;RESP -->
<g id="edge10" class="edge">
<title>LLM&#45;&gt;RESP</title>
<path fill="none" stroke="#7a7a7a" stroke-width="1.1" d="M95.25,-207.95C95.25,-207.95 95.25,-175.13 95.25,-175.13"/>
<polygon fill="#7a7a7a" stroke="#7a7a7a" stroke-width="1.1" points="97.7,-175.13 95.25,-168.13 92.8,-175.13 97.7,-175.13"/>
</g>
<!-- LLM&#45;&gt;OBS -->
<g id="edge12" class="edge">
<title>LLM&#45;&gt;OBS</title>
<path fill="none" stroke="#7a7a7a" stroke-width="1.1" stroke-dasharray="5,2" d="M173.25,-207.96C173.25,-207.96 173.25,-71.08 173.25,-71.08"/>
<polygon fill="#7a7a7a" stroke="#7a7a7a" stroke-width="1.1" points="175.7,-71.08 173.25,-64.08 170.8,-71.08 175.7,-71.08"/>
</g>
<!-- RESP&#45;&gt;OBS -->
<g id="edge13" class="edge">
<title>RESP&#45;&gt;OBS</title>
<path fill="none" stroke="#7a7a7a" stroke-width="1.1" stroke-dasharray="5,2" d="M157,-103.95C157,-103.95 157,-71.13 157,-71.13"/>
<polygon fill="#7a7a7a" stroke="#7a7a7a" stroke-width="1.1" points="159.45,-71.13 157,-64.13 154.55,-71.13 159.45,-71.13"/>
</g>
</g>
</svg>
