<?xml version="1.0" encoding="UTF-8" standalone="no"?>
<!DOCTYPE svg PUBLIC "-//W3C//DTD SVG 1.1//EN"
 "http://www.w3.org/Graphics/SVG/1.1/DTD/svg11.dtd">
<!-- Generated by graphviz version 2.42.4 (0)
 -->
<!-- Title: G Pages: 1 -->
<svg width="669pt" height="565pt"
 viewBox="0.00 0.00 669.40 565.40" xmlns="http://www.w3.org/2000/svg" xmlns:xlink="http://www.w3.org/1999/xlink">
<g id="graph0" class="graph" transform="scale(1 1) rotate(0) translate(25.2 540.2)">
<title>G</title>
<polygon fill="white" stroke="transparent" points="-25.2,25.2 -25.2,-540.2 644.2,-540.2 644.2,25.2 -25.2,25.2"/>
<!-- Q -->
<g id="node1" class="node">
<title>Q</title>
<path fill="#eaf2ff" stroke="#d0d7de" stroke-width="1.1" d="M334,-515C334,-515 261,-515 261,-515 255,-515 249,-509 249,-503 249,-503 249,-461 249,-461 249,-455 255,-449 261,-449 261,-449 334,-449 334,-449 340,-449 346,-455 346,-461 346,-461 346,-503 346,-503 346,-509 340,-515 334,-515"/>
<text text-anchor="start" x="265.5" y="-492.4" font-family="Arial" font-weight="bold" font-size="12.00">User Query</text>
<text text-anchor="start" x="272" y="-466" font-family="Arial" font-size="10.00">사용자 질문</text>
</g>
<!-- DEC -->
<g id="node2" class="node">
<title>DEC</title>
<path fill="#f7fbff" stroke="#d0d7de" stroke-width="1.1" d="M361.5,-409C361.5,-409 233.5,-409 233.5,-409 227.5,-409 221.5,-403 221.5,-397 221.5,-397 221.5,-355 221.5,-355 221.5,-349 227.5,-343 233.5,-343 233.5,-343 361.5,-343 361.5,-343 367.5,-343 373.5,-349 373.5,-355 373.5,-355 373.5,-397 373.5,-397 373.5,-403 367.5,-409 361.5,-409"/>
<text text-anchor="start" x="246.5" y="-386.4" font-family="Arial" font-weight="bold" font-size="12.00">Strategy Decision</text>
<text text-anchor="start" x="237.5" y="-360" font-family="Arial" font-size="10.00">질문 유형에 따라 모드 선택</text>
</g>
<!-- Q&#45;&gt;DEC -->
<g id="edge1" class="edge">
<title>Q&#45;&gt;DEC</title>
<path fill="none" stroke="#7f7f7f" stroke-width="1.1" d="M297.5,-448.75C297.5,-448.75 297.5,-416.13 297.5,-416.13"/>
<polygon fill="#7f7f7f" stroke="#7f7f7f" stroke-width="1.1" points="299.95,-416.13 297.5,-409.13 295.05,-416.13 299.95,-416.13"/>
</g>
<!-- S -->
<g id="node3" class="node">
<title>S</title>
<path fill="#fff7e8" stroke="#d0d7de" stroke-width="1.1" d="M147,-303C147,-303 12,-303 12,-303 6,-303 0,-297 0,-291 0,-291 0,-224 0,-224 0,-218 6,-212 12,-212 12,-212 147,-212 147,-212 153,-212 159,-218 159,-224 159,-224 159,-291 159,-291 159,-297 153,-303 147,-303"/>
<text text-anchor="start" x="53.5" y="-279.9" font-family="Arial" font-weight="bold" font-size="12.00">SEARCH</text>
<text text-anchor="start" x="28.5" y="-253.5" font-family="Arial" font-size="10.00">넓게 찾기 · 탐색형 검색</text>
<text text-anchor="start" x="16.5" y="-228.5" font-family="Arial" font-size="10.00">Recall&#45;first / Hybrid Retrieval</text>
</g>
<!-- DEC&#45;&gt;S -->
<g id="edge2" class="edge">
<title>DEC&#45;&gt;S</title>
<path fill="none" stroke="#7f7f7f" stroke-width="1.1" d="M221.25,-376C158.39,-376 79.5,-376 79.5,-376 79.5,-376 79.5,-310.32 79.5,-310.32"/>
<polygon fill="#7f7f7f" stroke="#7f7f7f" stroke-width="1.1" points="81.95,-310.32 79.5,-303.32 77.05,-310.32 81.95,-310.32"/>
</g>
<!-- L -->
<g id="node4" class="node">
<title>L</title>
<path fill="#eef9f1" stroke="#d0d7de" stroke-width="1.1" d="M392,-303C392,-303 203,-303 203,-303 197,-303 191,-297 191,-291 191,-291 191,-224 191,-224 191,-218 197,-212 203,-212 203,-212 392,-212 392,-212 398,-212 404,-218 404,-224 404,-224 404,-291 404,-291 404,-297 398,-303 392,-303"/>
<text text-anchor="start" x="272" y="-279.9" font-family="Arial" font-weight="bold" font-size="12.00">LOOKUP</text>
<text text-anchor="start" x="207.5" y="-253.5" font-family="Arial" font-size="10.00">정확히 찾기 · 상세/식별자/사람·기관 조회</text>
<text text-anchor="start" x="242.5" y="-228.5" font-family="Arial" font-size="10.00">Filter&#45;first / Precision&#45;first</text>
</g>
<!-- DEC&#45;&gt;L -->
<g id="edge3" class="edge">
<title>DEC&#45;&gt;L</title>
<path fill="none" stroke="#7f7f7f" stroke-width="1.1" d="M297.5,-342.99C297.5,-342.99 297.5,-310.17 297.5,-310.17"/>
<polygon fill="#7f7f7f" stroke="#7f7f7f" stroke-width="1.1" points="299.95,-310.17 297.5,-303.17 295.05,-310.17 299.95,-310.17"/>
</g>
<!-- J -->
<g id="node5" class="node">
<title>J</title>
<path fill="#f4f1ff" stroke="#d0d7de" stroke-width="1.1" d="M607,-303C607,-303 448,-303 448,-303 442,-303 436,-297 436,-291 436,-291 436,-224 436,-224 436,-218 442,-212 448,-212 448,-212 607,-212 607,-212 613,-212 619,-218 619,-224 619,-224 619,-291 619,-291 619,-297 613,-303 607,-303"/>
<text text-anchor="start" x="514" y="-279.9" font-family="Arial" font-weight="bold" font-size="12.00">JOIN</text>
<text text-anchor="start" x="458.5" y="-253.5" font-family="Arial" font-size="10.00">관계형 조회 · 과제 ↔ 성과 연결</text>
<text text-anchor="start" x="452.5" y="-228.5" font-family="Arial" font-size="10.00">Hop1 key resolve → Hop2 retrieve</text>
</g>
<!-- DEC&#45;&gt;J -->
<g id="edge4" class="edge">
<title>DEC&#45;&gt;J</title>
<path fill="none" stroke="#7f7f7f" stroke-width="1.1" d="M373.77,-376C440.72,-376 527.5,-376 527.5,-376 527.5,-376 527.5,-310.32 527.5,-310.32"/>
<polygon fill="#7f7f7f" stroke="#7f7f7f" stroke-width="1.1" points="529.95,-310.32 527.5,-303.32 525.05,-310.32 529.95,-310.32"/>
</g>
<!-- R -->
<g id="node6" class="node">
<title>R</title>
<path fill="#ffffff" stroke="#d0d7de" stroke-width="1.1" d="M374.5,-172C374.5,-172 220.5,-172 220.5,-172 214.5,-172 208.5,-166 208.5,-160 208.5,-160 208.5,-118 208.5,-118 208.5,-112 214.5,-106 220.5,-106 220.5,-106 374.5,-106 374.5,-106 380.5,-106 386.5,-112 386.5,-118 386.5,-118 386.5,-160 386.5,-160 386.5,-166 380.5,-172 374.5,-172"/>
<text text-anchor="start" x="224.5" y="-149.4" font-family="Arial" font-weight="bold" font-size="12.00">Rerank &amp; Result Contract</text>
<text text-anchor="start" x="241" y="-123" font-family="Arial" font-size="10.00">결과 재정렬 · 품질 게이트</text>
</g>
<!-- S&#45;&gt;R -->
<g id="edge5" class="edge">
<title>S&#45;&gt;R</title>
<path fill="none" stroke="#7f7f7f" stroke-width="1.1" d="M79.5,-211.68C79.5,-178.34 79.5,-139 79.5,-139 79.5,-139 201.2,-139 201.2,-139"/>
<polygon fill="#7f7f7f" stroke="#7f7f7f" stroke-width="1.1" points="201.2,-141.45 208.2,-139 201.2,-136.55 201.2,-141.45"/>
</g>
<!-- L&#45;&gt;R -->
<g id="edge6" class="edge">
<title>L&#45;&gt;R</title>
<path fill="none" stroke="#7f7f7f" stroke-width="1.1" d="M297.5,-211.68C297.5,-211.68 297.5,-179.2 297.5,-179.2"/>
<polygon fill="#7f7f7f" stroke="#7f7f7f" stroke-width="1.1" points="299.95,-179.2 297.5,-172.2 295.05,-179.2 299.95,-179.2"/>
</g>
<!-- J&#45;&gt;R -->
<g id="edge7" class="edge">
<title>J&#45;&gt;R</title>
<path fill="none" stroke="#7f7f7f" stroke-width="1.1" d="M527.5,-211.68C527.5,-178.34 527.5,-139 527.5,-139 527.5,-139 393.75,-139 393.75,-139"/>
<polygon fill="#7f7f7f" stroke="#7f7f7f" stroke-width="1.1" points="393.75,-136.55 386.75,-139 393.75,-141.45 393.75,-136.55"/>
</g>
<!-- A -->
<g id="node7" class="node">
<title>A</title>
<path fill="#f8fafc" stroke="#d0d7de" stroke-width="1.1" d="M363,-66C363,-66 232,-66 232,-66 226,-66 220,-60 220,-54 220,-54 220,-12 220,-12 220,-6 226,0 232,0 232,0 363,0 363,0 369,0 375,-6 375,-12 375,-12 375,-54 375,-54 375,-60 369,-66 363,-66"/>
<text text-anchor="start" x="245" y="-43.4" font-family="Arial" font-weight="bold" font-size="12.00">Answer / Evidence</text>
<text text-anchor="start" x="236.5" y="-17" font-family="Arial" font-size="10.00">근거 정리 후 최종 응답 생성</text>
</g>
<!-- R&#45;&gt;A -->
<g id="edge8" class="edge">
<title>R&#45;&gt;A</title>
<path fill="none" stroke="#7f7f7f" stroke-width="1.1" d="M297.5,-105.75C297.5,-105.75 297.5,-73.13 297.5,-73.13"/>
<polygon fill="#7f7f7f" stroke="#7f7f7f" stroke-width="1.1" points="299.95,-73.13 297.5,-66.13 295.05,-73.13 299.95,-73.13"/>
</g>
</g>
</svg>
