<?xml version="1.0" encoding="UTF-8" standalone="no"?>
<!DOCTYPE svg PUBLIC "-//W3C//DTD SVG 1.1//EN"
 "http://www.w3.org/Graphics/SVG/1.1/DTD/svg11.dtd">
<!-- Generated by graphviz version 2.42.4 (0)
 -->
<!-- Title: G Pages: 1 -->
<svg width="2327pt" height="231pt"
 viewBox="0.00 0.00 2327.40 231.40" xmlns="http://www.w3.org/2000/svg" xmlns:xlink="http://www.w3.org/1999/xlink">
<g id="graph0" class="graph" transform="scale(1 1) rotate(0) translate(25.2 206.2)">
<title>G</title>
<polygon fill="white" stroke="transparent" points="-25.2,25.2 -25.2,-206.2 2302.2,-206.2 2302.2,25.2 -25.2,25.2"/>
<!-- SRC -->
<g id="node1" class="node">
<title>SRC</title>
<path fill="#eaf2ff" stroke="#d0d7de" stroke-width="1.1" d="M187,-66C187,-66 12,-66 12,-66 6,-66 0,-60 0,-54 0,-54 0,-12 0,-12 0,-6 6,0 12,0 12,0 187,0 187,0 193,0 199,-6 199,-12 199,-12 199,-54 199,-54 199,-60 193,-66 187,-66"/>
<text text-anchor="start" x="64.5" y="-43.4" font-family="Arial" font-weight="bold" font-size="12.00">Source Data</text>
<text text-anchor="start" x="16.5" y="-17" font-family="Arial" font-size="10.00">국가 R&amp;D 구조화 데이터 · 메타데이터</text>
</g>
<!-- NORM -->
<g id="node2" class="node">
<title>NORM</title>
<path fill="#f7fbff" stroke="#d0d7de" stroke-width="1.1" d="M441,-66C441,-66 269,-66 269,-66 263,-66 257,-60 257,-54 257,-54 257,-12 257,-12 257,-6 263,0 269,0 269,0 441,0 441,0 447,0 453,-6 453,-12 453,-12 453,-54 453,-54 453,-60 447,-66 441,-66"/>
<text text-anchor="start" x="285.5" y="-43.4" font-family="Arial" font-weight="bold" font-size="12.00">Normalize &amp; Preprocess</text>
<text text-anchor="start" x="273" y="-17" font-family="Arial" font-size="10.00">정규화 · 필드 가공 · 검색 친화적 변환</text>
</g>
<!-- SRC&#45;&gt;NORM -->
<g id="edge1" class="edge">
<title>SRC&#45;&gt;NORM</title>
<path fill="none" stroke="#808080" stroke-width="1.1" d="M199.01,-33C199.01,-33 249.6,-33 249.6,-33"/>
<polygon fill="#808080" stroke="#808080" stroke-width="1.1" points="249.6,-35.45 256.6,-33 249.6,-30.55 249.6,-35.45"/>
</g>
<!-- EMB -->
<g id="node3" class="node">
<title>EMB</title>
<path fill="#f7fbff" stroke="#d0d7de" stroke-width="1.1" d="M664,-66C664,-66 523,-66 523,-66 517,-66 511,-60 511,-54 511,-54 511,-12 511,-12 511,-6 517,0 523,0 523,0 664,0 664,0 670,0 676,-6 676,-12 676,-12 676,-54 676,-54 676,-60 670,-66 664,-66"/>
<text text-anchor="start" x="527.5" y="-43.4" font-family="Arial" font-weight="bold" font-size="12.00">Embedding Generation</text>
<text text-anchor="start" x="542.5" y="-17" font-family="Arial" font-size="10.00">임베딩 생성 · 배치 처리</text>
</g>
<!-- NORM&#45;&gt;EMB -->
<g id="edge2" class="edge">
<title>NORM&#45;&gt;EMB</title>
<path fill="none" stroke="#808080" stroke-width="1.1" d="M453.04,-33C453.04,-33 503.67,-33 503.67,-33"/>
<polygon fill="#808080" stroke="#808080" stroke-width="1.1" points="503.67,-35.45 510.67,-33 503.67,-30.55 503.67,-35.45"/>
</g>
<!-- IDX -->
<g id="node4" class="node">
<title>IDX</title>
<path fill="#f7fbff" stroke="#d0d7de" stroke-width="1.1" d="M883,-66C883,-66 746,-66 746,-66 740,-66 734,-60 734,-54 734,-54 734,-12 734,-12 734,-6 740,0 746,0 746,0 883,0 883,0 889,0 895,-6 895,-12 895,-12 895,-54 895,-54 895,-60 889,-66 883,-66"/>
<text text-anchor="start" x="790" y="-43.4" font-family="Arial" font-weight="bold" font-size="12.00">Indexing</text>
<text text-anchor="start" x="750.5" y="-17" font-family="Arial" font-size="10.00">Vector DB 적재 · 증분 동기화</text>
</g>
<!-- EMB&#45;&gt;IDX -->
<g id="edge3" class="edge">
<title>EMB&#45;&gt;IDX</title>
<path fill="none" stroke="#808080" stroke-width="1.1" d="M676.11,-33C676.11,-33 726.83,-33 726.83,-33"/>
<polygon fill="#808080" stroke="#808080" stroke-width="1.1" points="726.83,-35.45 733.83,-33 726.83,-30.55 726.83,-35.45"/>
</g>
<!-- QD -->
<g id="node5" class="node">
<title>QD</title>
<path fill="#fff9f2" stroke="#d0d7de" stroke-width="1.1" d="M1141,-107C1141,-107 965,-107 965,-107 959,-107 953,-101 953,-95 953,-95 953,-53 953,-53 953,-47 959,-41 965,-41 965,-41 1141,-41 1141,-41 1147,-41 1153,-47 1153,-53 1153,-53 1153,-95 1153,-95 1153,-101 1147,-107 1141,-107"/>
<text text-anchor="start" x="986.5" y="-84.4" font-family="Arial" font-weight="bold" font-size="12.00">Qdrant / Retrieval Store</text>
<text text-anchor="start" x="969" y="-58" font-family="Arial" font-size="10.00">벡터 인덱스 · 필터 가능한 검색 저장소</text>
</g>
<!-- IDX&#45;&gt;QD -->
<g id="edge4" class="edge">
<title>IDX&#45;&gt;QD</title>
<path fill="none" stroke="#808080" stroke-width="1.1" d="M895.25,-53.5C895.25,-53.5 945.88,-53.5 945.88,-53.5"/>
<polygon fill="#808080" stroke="#808080" stroke-width="1.1" points="945.88,-55.95 952.88,-53.5 945.88,-51.05 945.88,-55.95"/>
</g>
<!-- OBS -->
<g id="node11" class="node">
<title>OBS</title>
<path fill="#f3f4f6" stroke="#d0d7de" stroke-width="1.1" d="M2256,-83C2256,-83 2116,-83 2116,-83 2110,-83 2104,-77 2104,-71 2104,-71 2104,-29 2104,-29 2104,-23 2110,-17 2116,-17 2116,-17 2256,-17 2256,-17 2262,-17 2268,-23 2268,-29 2268,-29 2268,-71 2268,-71 2268,-77 2262,-83 2256,-83"/>
<text text-anchor="start" x="2143" y="-60.4" font-family="Arial" font-weight="bold" font-size="12.00">Logs &amp; Metrics</text>
<text text-anchor="start" x="2120" y="-34" font-family="Arial" font-size="10.00">운영 로그 · 메트릭 · 상태 저장</text>
</g>
<!-- IDX&#45;&gt;OBS -->
<g id="edge10" class="edge">
<title>IDX&#45;&gt;OBS</title>
<path fill="none" stroke="#808080" stroke-width="1.1" stroke-dasharray="5,2" d="M895.17,-29C895.17,-29 2096.7,-29 2096.7,-29"/>
<polygon fill="#808080" stroke="#808080" stroke-width="1.1" points="2096.7,-31.45 2103.7,-29 2096.7,-26.55 2096.7,-31.45"/>
</g>
<!-- PLAN -->
<g id="node6" class="node">
<title>PLAN</title>
<path fill="#fff9f2" stroke="#d0d7de" stroke-width="1.1" d="M1373,-107C1373,-107 1223,-107 1223,-107 1217,-107 1211,-101 1211,-95 1211,-95 1211,-53 1211,-53 1211,-47 1217,-41 1223,-41 1223,-41 1373,-41 1373,-41 1379,-41 1385,-47 1385,-53 1385,-53 1385,-95 1385,-95 1385,-101 1379,-107 1373,-107"/>
<text text-anchor="start" x="1250.5" y="-84.4" font-family="Arial" font-weight="bold" font-size="12.00">Planner &amp; Filters</text>
<text text-anchor="start" x="1227" y="-58" font-family="Arial" font-size="10.00">질의분석 · 전략 결정 · 필터 적용</text>
</g>
<!-- QD&#45;&gt;PLAN -->
<g id="edge5" class="edge">
<title>QD&#45;&gt;PLAN</title>
<path fill="none" stroke="#808080" stroke-width="1.1" d="M1153,-74C1153,-74 1203.88,-74 1203.88,-74"/>
<polygon fill="#808080" stroke="#808080" stroke-width="1.1" points="1203.88,-76.45 1210.88,-74 1203.88,-71.55 1203.88,-76.45"/>
</g>
<!-- RET -->
<g id="node7" class="node">
<title>RET</title>
<path fill="#fff9f2" stroke="#d0d7de" stroke-width="1.1" d="M1611,-107C1611,-107 1455,-107 1455,-107 1449,-107 1443,-101 1443,-95 1443,-95 1443,-53 1443,-53 1443,-47 1449,-41 1455,-41 1455,-41 1611,-41 1611,-41 1617,-41 1623,-47 1623,-53 1623,-53 1623,-95 1623,-95 1623,-101 1617,-107 1611,-107"/>
<text text-anchor="start" x="1459" y="-84.4" font-family="Arial" font-weight="bold" font-size="12.00">Hybrid Retrieval &amp; Rerank</text>
<text text-anchor="start" x="1459.5" y="-58" font-family="Arial" font-size="10.00">Dense / Sparse / Rerank / Dedup</text>
</g>
<!-- PLAN&#45;&gt;RET -->
<g id="edge6" class="edge">
<title>PLAN&#45;&gt;RET</title>
<path fill="none" stroke="#808080" stroke-width="1.1" d="M1385.17,-74C1385.17,-74 1435.83,-74 1435.83,-74"/>
<polygon fill="#808080" stroke="#808080" stroke-width="1.1" points="1435.83,-76.45 1442.83,-74 1435.83,-71.55 1435.83,-76.45"/>
</g>
<!-- CTX -->
<g id="node8" class="node">
<title>CTX</title>
<path fill="#fcf9ff" stroke="#d0d7de" stroke-width="1.1" d="M1817,-173C1817,-173 1693,-173 1693,-173 1687,-173 1681,-167 1681,-161 1681,-161 1681,-119 1681,-119 1681,-113 1687,-107 1693,-107 1693,-107 1817,-107 1817,-107 1823,-107 1829,-113 1829,-119 1829,-119 1829,-161 1829,-161 1829,-167 1823,-173 1817,-173"/>
<text text-anchor="start" x="1710" y="-150.4" font-family="Arial" font-weight="bold" font-size="12.00">Context Builder</text>
<text text-anchor="start" x="1697" y="-124" font-family="Arial" font-size="10.00">근거 선택 · 토큰 예산 관리</text>
</g>
<!-- RET&#45;&gt;CTX -->
<g id="edge7" class="edge">
<title>RET&#45;&gt;CTX</title>
<path fill="none" stroke="#808080" stroke-width="1.1" d="M1623.3,-95C1684.76,-95 1755,-95 1755,-95 1755,-95 1755,-99.82 1755,-99.82"/>
<polygon fill="#808080" stroke="#808080" stroke-width="1.1" points="1752.55,-99.82 1755,-106.82 1757.45,-99.82 1752.55,-99.82"/>
</g>
<!-- RET&#45;&gt;OBS -->
<g id="edge11" class="edge">
<title>RET&#45;&gt;OBS</title>
<path fill="none" stroke="#808080" stroke-width="1.1" stroke-dasharray="5,2" d="M1623.11,-62C1623.11,-62 2096.76,-62 2096.76,-62"/>
<polygon fill="#808080" stroke="#808080" stroke-width="1.1" points="2096.76,-64.45 2103.76,-62 2096.76,-59.55 2096.76,-64.45"/>
</g>
<!-- LLM -->
<g id="node9" class="node">
<title>LLM</title>
<path fill="#fcf9ff" stroke="#d0d7de" stroke-width="1.1" d="M2025,-173C2025,-173 1899,-173 1899,-173 1893,-173 1887,-167 1887,-161 1887,-161 1887,-119 1887,-119 1887,-113 1893,-107 1899,-107 1899,-107 2025,-107 2025,-107 2031,-107 2037,-113 2037,-119 2037,-119 2037,-161 2037,-161 2037,-167 2031,-173 2025,-173"/>
<text text-anchor="start" x="1925.5" y="-150.4" font-family="Arial" font-weight="bold" font-size="12.00">LLM Serving</text>
<text text-anchor="start" x="1903" y="-124" font-family="Arial" font-size="10.00">GPU 서빙 계층 · 응답 생성</text>
</g>
<!-- CTX&#45;&gt;LLM -->
<g id="edge8" class="edge">
<title>CTX&#45;&gt;LLM</title>
<path fill="none" stroke="#808080" stroke-width="1.1" d="M1829.15,-140C1829.15,-140 1879.98,-140 1879.98,-140"/>
<polygon fill="#808080" stroke="#808080" stroke-width="1.1" points="1879.98,-142.45 1886.98,-140 1879.98,-137.55 1879.98,-142.45"/>
</g>
<!-- API -->
<g id="node10" class="node">
<title>API</title>
<path fill="#fcf9ff" stroke="#d0d7de" stroke-width="1.1" d="M2265,-181C2265,-181 2107,-181 2107,-181 2101,-181 2095,-175 2095,-169 2095,-169 2095,-127 2095,-127 2095,-121 2101,-115 2107,-115 2107,-115 2265,-115 2265,-115 2271,-115 2277,-121 2277,-127 2277,-127 2277,-169 2277,-169 2277,-175 2271,-181 2265,-181"/>
<text text-anchor="start" x="2111" y="-158.4" font-family="Arial" font-weight="bold" font-size="12.00">API / Streaming Response</text>
<text text-anchor="start" x="2134" y="-132" font-family="Arial" font-size="10.00">서비스 연계 · SSE 응답</text>
</g>
<!-- LLM&#45;&gt;API -->
<g id="edge9" class="edge">
<title>LLM&#45;&gt;API</title>
<path fill="none" stroke="#808080" stroke-width="1.1" d="M2037.21,-144C2037.21,-144 2087.66,-144 2087.66,-144"/>
<polygon fill="#808080" stroke="#808080" stroke-width="1.1" points="2087.66,-146.45 2094.66,-144 2087.66,-141.55 2087.66,-146.45"/>
</g>
<!-- LLM&#45;&gt;OBS -->
<g id="edge12" class="edge">
<title>LLM&#45;&gt;OBS</title>
<path fill="none" stroke="#808080" stroke-width="1.1" stroke-dasharray="5,2" d="M2037.21,-111C2102.29,-111 2186,-111 2186,-111 2186,-111 2186,-90.36 2186,-90.36"/>
<polygon fill="#808080" stroke="#808080" stroke-width="1.1" points="2188.45,-90.36 2186,-83.36 2183.55,-90.36 2188.45,-90.36"/>
</g>
</g>
</svg>
